%TF.GenerationSoftware,KiCad,Pcbnew,8.0.4*%
%TF.CreationDate,2024-07-20T22:23:47+08:00*%
%TF.ProjectId,WT_Jlink_Adapter,57545f4a-6c69-46e6-9b5f-416461707465,rev?*%
%TF.SameCoordinates,Original*%
%TF.FileFunction,Legend,Top*%
%TF.FilePolarity,Positive*%
%FSLAX46Y46*%
G04 Gerber Fmt 4.6, Leading zero omitted, Abs format (unit mm)*
G04 Created by KiCad (PCBNEW 8.0.4) date 2024-07-20 22:23:47*
%MOMM*%
%LPD*%
G01*
G04 APERTURE LIST*
%ADD10C,0.100000*%
%ADD11C,0.200000*%
%ADD12C,0.120000*%
%ADD13C,0.000000*%
G04 APERTURE END LIST*
D10*
X120202419Y-113734687D02*
X119726228Y-114068020D01*
X120202419Y-114306115D02*
X119202419Y-114306115D01*
X119202419Y-114306115D02*
X119202419Y-113925163D01*
X119202419Y-113925163D02*
X119250038Y-113829925D01*
X119250038Y-113829925D02*
X119297657Y-113782306D01*
X119297657Y-113782306D02*
X119392895Y-113734687D01*
X119392895Y-113734687D02*
X119535752Y-113734687D01*
X119535752Y-113734687D02*
X119630990Y-113782306D01*
X119630990Y-113782306D02*
X119678609Y-113829925D01*
X119678609Y-113829925D02*
X119726228Y-113925163D01*
X119726228Y-113925163D02*
X119726228Y-114306115D01*
X119202419Y-113401353D02*
X120202419Y-112734687D01*
X119202419Y-112734687D02*
X120202419Y-113401353D01*
X120202419Y-112353734D02*
X119202419Y-112353734D01*
X119202419Y-112353734D02*
X119202419Y-112115639D01*
X119202419Y-112115639D02*
X119250038Y-111972782D01*
X119250038Y-111972782D02*
X119345276Y-111877544D01*
X119345276Y-111877544D02*
X119440514Y-111829925D01*
X119440514Y-111829925D02*
X119630990Y-111782306D01*
X119630990Y-111782306D02*
X119773847Y-111782306D01*
X119773847Y-111782306D02*
X119964323Y-111829925D01*
X119964323Y-111829925D02*
X120059561Y-111877544D01*
X120059561Y-111877544D02*
X120154800Y-111972782D01*
X120154800Y-111972782D02*
X120202419Y-112115639D01*
X120202419Y-112115639D02*
X120202419Y-112353734D01*
X120202419Y-111306115D02*
X119202419Y-111306115D01*
X119202419Y-111306115D02*
X119202419Y-111068020D01*
X119202419Y-111068020D02*
X119250038Y-110925163D01*
X119250038Y-110925163D02*
X119345276Y-110829925D01*
X119345276Y-110829925D02*
X119440514Y-110782306D01*
X119440514Y-110782306D02*
X119630990Y-110734687D01*
X119630990Y-110734687D02*
X119773847Y-110734687D01*
X119773847Y-110734687D02*
X119964323Y-110782306D01*
X119964323Y-110782306D02*
X120059561Y-110829925D01*
X120059561Y-110829925D02*
X120154800Y-110925163D01*
X120154800Y-110925163D02*
X120202419Y-111068020D01*
X120202419Y-111068020D02*
X120202419Y-111306115D01*
X119678609Y-109972782D02*
X119726228Y-109829925D01*
X119726228Y-109829925D02*
X119773847Y-109782306D01*
X119773847Y-109782306D02*
X119869085Y-109734687D01*
X119869085Y-109734687D02*
X120011942Y-109734687D01*
X120011942Y-109734687D02*
X120107180Y-109782306D01*
X120107180Y-109782306D02*
X120154800Y-109829925D01*
X120154800Y-109829925D02*
X120202419Y-109925163D01*
X120202419Y-109925163D02*
X120202419Y-110306115D01*
X120202419Y-110306115D02*
X119202419Y-110306115D01*
X119202419Y-110306115D02*
X119202419Y-109972782D01*
X119202419Y-109972782D02*
X119250038Y-109877544D01*
X119250038Y-109877544D02*
X119297657Y-109829925D01*
X119297657Y-109829925D02*
X119392895Y-109782306D01*
X119392895Y-109782306D02*
X119488133Y-109782306D01*
X119488133Y-109782306D02*
X119583371Y-109829925D01*
X119583371Y-109829925D02*
X119630990Y-109877544D01*
X119630990Y-109877544D02*
X119678609Y-109972782D01*
X119678609Y-109972782D02*
X119678609Y-110306115D01*
X119250038Y-108782306D02*
X119202419Y-108877544D01*
X119202419Y-108877544D02*
X119202419Y-109020401D01*
X119202419Y-109020401D02*
X119250038Y-109163258D01*
X119250038Y-109163258D02*
X119345276Y-109258496D01*
X119345276Y-109258496D02*
X119440514Y-109306115D01*
X119440514Y-109306115D02*
X119630990Y-109353734D01*
X119630990Y-109353734D02*
X119773847Y-109353734D01*
X119773847Y-109353734D02*
X119964323Y-109306115D01*
X119964323Y-109306115D02*
X120059561Y-109258496D01*
X120059561Y-109258496D02*
X120154800Y-109163258D01*
X120154800Y-109163258D02*
X120202419Y-109020401D01*
X120202419Y-109020401D02*
X120202419Y-108925163D01*
X120202419Y-108925163D02*
X120154800Y-108782306D01*
X120154800Y-108782306D02*
X120107180Y-108734687D01*
X120107180Y-108734687D02*
X119773847Y-108734687D01*
X119773847Y-108734687D02*
X119773847Y-108925163D01*
X119250038Y-107782306D02*
X119202419Y-107877544D01*
X119202419Y-107877544D02*
X119202419Y-108020401D01*
X119202419Y-108020401D02*
X119250038Y-108163258D01*
X119250038Y-108163258D02*
X119345276Y-108258496D01*
X119345276Y-108258496D02*
X119440514Y-108306115D01*
X119440514Y-108306115D02*
X119630990Y-108353734D01*
X119630990Y-108353734D02*
X119773847Y-108353734D01*
X119773847Y-108353734D02*
X119964323Y-108306115D01*
X119964323Y-108306115D02*
X120059561Y-108258496D01*
X120059561Y-108258496D02*
X120154800Y-108163258D01*
X120154800Y-108163258D02*
X120202419Y-108020401D01*
X120202419Y-108020401D02*
X120202419Y-107925163D01*
X120202419Y-107925163D02*
X120154800Y-107782306D01*
X120154800Y-107782306D02*
X120107180Y-107734687D01*
X120107180Y-107734687D02*
X119773847Y-107734687D01*
X119773847Y-107734687D02*
X119773847Y-107925163D01*
X120202419Y-107306115D02*
X119202419Y-107306115D01*
X119202419Y-107306115D02*
X120202419Y-106734687D01*
X120202419Y-106734687D02*
X119202419Y-106734687D01*
X120202419Y-106258496D02*
X119202419Y-106258496D01*
X119202419Y-106258496D02*
X119202419Y-106020401D01*
X119202419Y-106020401D02*
X119250038Y-105877544D01*
X119250038Y-105877544D02*
X119345276Y-105782306D01*
X119345276Y-105782306D02*
X119440514Y-105734687D01*
X119440514Y-105734687D02*
X119630990Y-105687068D01*
X119630990Y-105687068D02*
X119773847Y-105687068D01*
X119773847Y-105687068D02*
X119964323Y-105734687D01*
X119964323Y-105734687D02*
X120059561Y-105782306D01*
X120059561Y-105782306D02*
X120154800Y-105877544D01*
X120154800Y-105877544D02*
X120202419Y-106020401D01*
X120202419Y-106020401D02*
X120202419Y-106258496D01*
X115277693Y-97292419D02*
X114706265Y-97292419D01*
X114991979Y-97292419D02*
X114991979Y-96292419D01*
X114991979Y-96292419D02*
X114896741Y-96435276D01*
X114896741Y-96435276D02*
X114801503Y-96530514D01*
X114801503Y-96530514D02*
X114706265Y-96578133D01*
D11*
X115381435Y-93584219D02*
X115619530Y-94584219D01*
X115619530Y-94584219D02*
X115810006Y-93869933D01*
X115810006Y-93869933D02*
X116000482Y-94584219D01*
X116000482Y-94584219D02*
X116238578Y-93584219D01*
X116476673Y-93584219D02*
X117048101Y-93584219D01*
X116762387Y-94584219D02*
X116762387Y-93584219D01*
X117381435Y-94584219D02*
X117381435Y-93584219D01*
X117381435Y-93584219D02*
X117714768Y-94298504D01*
X117714768Y-94298504D02*
X118048101Y-93584219D01*
X118048101Y-93584219D02*
X118048101Y-94584219D01*
X118524292Y-94060409D02*
X118857625Y-94060409D01*
X119000482Y-94584219D02*
X118524292Y-94584219D01*
X118524292Y-94584219D02*
X118524292Y-93584219D01*
X118524292Y-93584219D02*
X119000482Y-93584219D01*
X120000482Y-94488980D02*
X119952863Y-94536600D01*
X119952863Y-94536600D02*
X119810006Y-94584219D01*
X119810006Y-94584219D02*
X119714768Y-94584219D01*
X119714768Y-94584219D02*
X119571911Y-94536600D01*
X119571911Y-94536600D02*
X119476673Y-94441361D01*
X119476673Y-94441361D02*
X119429054Y-94346123D01*
X119429054Y-94346123D02*
X119381435Y-94155647D01*
X119381435Y-94155647D02*
X119381435Y-94012790D01*
X119381435Y-94012790D02*
X119429054Y-93822314D01*
X119429054Y-93822314D02*
X119476673Y-93727076D01*
X119476673Y-93727076D02*
X119571911Y-93631838D01*
X119571911Y-93631838D02*
X119714768Y-93584219D01*
X119714768Y-93584219D02*
X119810006Y-93584219D01*
X119810006Y-93584219D02*
X119952863Y-93631838D01*
X119952863Y-93631838D02*
X120000482Y-93679457D01*
D12*
%TO.C,J1*%
X99937000Y-88688000D02*
X99937000Y-114208000D01*
X99937000Y-88688000D02*
X108567000Y-88688000D01*
X99937000Y-88808000D02*
X108567000Y-88808000D01*
X99937000Y-88926095D02*
X108567000Y-88926095D01*
X99937000Y-89044190D02*
X108567000Y-89044190D01*
X99937000Y-89162285D02*
X108567000Y-89162285D01*
X99937000Y-89280380D02*
X108567000Y-89280380D01*
X99937000Y-89398475D02*
X108567000Y-89398475D01*
X99937000Y-89516570D02*
X108567000Y-89516570D01*
X99937000Y-89634665D02*
X108567000Y-89634665D01*
X99937000Y-89752760D02*
X108567000Y-89752760D01*
X99937000Y-89870855D02*
X108567000Y-89870855D01*
X99937000Y-89988950D02*
X108567000Y-89988950D01*
X99937000Y-90107045D02*
X108567000Y-90107045D01*
X99937000Y-90225140D02*
X108567000Y-90225140D01*
X99937000Y-90343235D02*
X108567000Y-90343235D01*
X99937000Y-90461330D02*
X108567000Y-90461330D01*
X99937000Y-90579425D02*
X108567000Y-90579425D01*
X99937000Y-90697520D02*
X108567000Y-90697520D01*
X99937000Y-90815615D02*
X108567000Y-90815615D01*
X99937000Y-90933710D02*
X108567000Y-90933710D01*
X99937000Y-91051805D02*
X108567000Y-91051805D01*
X99937000Y-91169900D02*
X108567000Y-91169900D01*
X99937000Y-91288000D02*
X108567000Y-91288000D01*
X99937000Y-93828000D02*
X108567000Y-93828000D01*
X99937000Y-96368000D02*
X108567000Y-96368000D01*
X99937000Y-98908000D02*
X108567000Y-98908000D01*
X99937000Y-101448000D02*
X108567000Y-101448000D01*
X99937000Y-103988000D02*
X108567000Y-103988000D01*
X99937000Y-106528000D02*
X108567000Y-106528000D01*
X99937000Y-109068000D02*
X108567000Y-109068000D01*
X99937000Y-111608000D02*
X108567000Y-111608000D01*
X99937000Y-114208000D02*
X108567000Y-114208000D01*
X108567000Y-88688000D02*
X108567000Y-114208000D01*
X108567000Y-89658000D02*
X108977000Y-89658000D01*
X108567000Y-90378000D02*
X108977000Y-90378000D01*
X108567000Y-92198000D02*
X108977000Y-92198000D01*
X108567000Y-92918000D02*
X108977000Y-92918000D01*
X108567000Y-94738000D02*
X108977000Y-94738000D01*
X108567000Y-95458000D02*
X108977000Y-95458000D01*
X108567000Y-97278000D02*
X108977000Y-97278000D01*
X108567000Y-97998000D02*
X108977000Y-97998000D01*
X108567000Y-99818000D02*
X108977000Y-99818000D01*
X108567000Y-100538000D02*
X108977000Y-100538000D01*
X108567000Y-102358000D02*
X108977000Y-102358000D01*
X108567000Y-103078000D02*
X108977000Y-103078000D01*
X108567000Y-104898000D02*
X108977000Y-104898000D01*
X108567000Y-105618000D02*
X108977000Y-105618000D01*
X108567000Y-107438000D02*
X108977000Y-107438000D01*
X108567000Y-108158000D02*
X108977000Y-108158000D01*
X108567000Y-109978000D02*
X108977000Y-109978000D01*
X108567000Y-110698000D02*
X108977000Y-110698000D01*
X108567000Y-112518000D02*
X108977000Y-112518000D01*
X108567000Y-113238000D02*
X108977000Y-113238000D01*
X111077000Y-89658000D02*
X111457000Y-89658000D01*
X111077000Y-90378000D02*
X111457000Y-90378000D01*
X111077000Y-92198000D02*
X111517000Y-92198000D01*
X111077000Y-92918000D02*
X111517000Y-92918000D01*
X111077000Y-94738000D02*
X111517000Y-94738000D01*
X111077000Y-95458000D02*
X111517000Y-95458000D01*
X111077000Y-97278000D02*
X111517000Y-97278000D01*
X111077000Y-97998000D02*
X111517000Y-97998000D01*
X111077000Y-99818000D02*
X111517000Y-99818000D01*
X111077000Y-100538000D02*
X111517000Y-100538000D01*
X111077000Y-102358000D02*
X111517000Y-102358000D01*
X111077000Y-103078000D02*
X111517000Y-103078000D01*
X111077000Y-104898000D02*
X111517000Y-104898000D01*
X111077000Y-105618000D02*
X111517000Y-105618000D01*
X111077000Y-107438000D02*
X111517000Y-107438000D01*
X111077000Y-108158000D02*
X111517000Y-108158000D01*
X111077000Y-109978000D02*
X111517000Y-109978000D01*
X111077000Y-110698000D02*
X111517000Y-110698000D01*
X111077000Y-112518000D02*
X111517000Y-112518000D01*
X111077000Y-113238000D02*
X111517000Y-113238000D01*
X112567000Y-88688000D02*
X113677000Y-88688000D01*
X113677000Y-88688000D02*
X113677000Y-90018000D01*
D13*
%TO.C,LOGO1*%
G36*
X118082515Y-88153544D02*
G01*
X118101414Y-88154756D01*
X118113301Y-88156559D01*
X118115993Y-88157825D01*
X118122916Y-88161665D01*
X118136553Y-88165357D01*
X118141563Y-88166263D01*
X118158407Y-88169731D01*
X118171656Y-88173767D01*
X118173631Y-88174644D01*
X118184932Y-88179328D01*
X118201106Y-88184979D01*
X118205333Y-88186325D01*
X118248551Y-88203009D01*
X118296773Y-88227416D01*
X118348183Y-88258494D01*
X118400964Y-88295196D01*
X118423229Y-88312133D01*
X118446440Y-88331426D01*
X118473666Y-88355908D01*
X118502904Y-88383590D01*
X118532149Y-88412484D01*
X118559399Y-88440599D01*
X118582650Y-88465949D01*
X118599898Y-88486544D01*
X118602790Y-88490378D01*
X118610152Y-88499368D01*
X118619181Y-88507735D01*
X118631462Y-88516465D01*
X118648582Y-88526545D01*
X118672126Y-88538960D01*
X118703682Y-88554696D01*
X118715710Y-88560584D01*
X118751527Y-88578475D01*
X118789301Y-88598040D01*
X118825767Y-88617541D01*
X118857658Y-88635242D01*
X118875041Y-88645349D01*
X118903706Y-88662491D01*
X118924790Y-88675151D01*
X118940238Y-88684571D01*
X118951993Y-88691991D01*
X118961999Y-88698651D01*
X118972200Y-88705793D01*
X118984541Y-88714656D01*
X118991489Y-88719666D01*
X119009979Y-88732955D01*
X119026341Y-88744655D01*
X119037302Y-88752424D01*
X119037980Y-88752898D01*
X119045965Y-88759023D01*
X119060858Y-88770952D01*
X119081038Y-88787368D01*
X119104885Y-88806952D01*
X119127555Y-88825712D01*
X119188681Y-88878409D01*
X119249458Y-88934451D01*
X119307023Y-88991091D01*
X119358513Y-89045583D01*
X119369640Y-89058025D01*
X119385620Y-89076667D01*
X119404274Y-89099305D01*
X119424390Y-89124368D01*
X119444758Y-89150284D01*
X119464169Y-89175482D01*
X119481412Y-89198391D01*
X119495277Y-89217440D01*
X119504555Y-89231058D01*
X119508034Y-89237674D01*
X119508036Y-89237722D01*
X119504229Y-89241690D01*
X119495176Y-89239972D01*
X119486326Y-89234503D01*
X119476391Y-89227352D01*
X119459005Y-89216016D01*
X119436360Y-89201836D01*
X119410648Y-89186148D01*
X119384059Y-89170291D01*
X119358785Y-89155604D01*
X119338666Y-89144324D01*
X119313799Y-89131019D01*
X119285282Y-89116229D01*
X119254842Y-89100797D01*
X119224208Y-89085566D01*
X119195108Y-89071381D01*
X119169268Y-89059085D01*
X119148418Y-89049522D01*
X119134285Y-89043536D01*
X119128916Y-89041888D01*
X119118176Y-89038750D01*
X119116166Y-89037337D01*
X119106028Y-89031565D01*
X119087265Y-89023564D01*
X119061970Y-89014035D01*
X119032235Y-89003679D01*
X119000152Y-88993196D01*
X118967815Y-88983289D01*
X118937315Y-88974660D01*
X118910746Y-88968008D01*
X118906502Y-88967066D01*
X118870635Y-88961339D01*
X118829036Y-88957965D01*
X118784903Y-88956920D01*
X118741435Y-88958179D01*
X118701832Y-88961719D01*
X118669292Y-88967515D01*
X118664056Y-88968902D01*
X118617277Y-88987238D01*
X118576082Y-89013494D01*
X118541667Y-89046436D01*
X118515226Y-89084827D01*
X118497955Y-89127433D01*
X118493990Y-89144769D01*
X118490166Y-89160585D01*
X118485699Y-89172035D01*
X118484686Y-89173589D01*
X118481896Y-89182879D01*
X118480028Y-89201046D01*
X118479044Y-89225895D01*
X118478902Y-89255235D01*
X118479562Y-89286872D01*
X118480985Y-89318613D01*
X118483130Y-89348266D01*
X118485958Y-89373637D01*
X118488626Y-89389111D01*
X118498395Y-89432254D01*
X118507336Y-89467496D01*
X118516331Y-89497915D01*
X118526263Y-89526586D01*
X118533211Y-89544666D01*
X118538821Y-89558928D01*
X118546531Y-89578656D01*
X118552762Y-89594666D01*
X118560930Y-89613214D01*
X118573332Y-89638414D01*
X118588447Y-89667413D01*
X118604752Y-89697360D01*
X118620723Y-89725404D01*
X118634838Y-89748692D01*
X118635888Y-89750337D01*
X118647872Y-89767659D01*
X118665137Y-89790888D01*
X118685703Y-89817522D01*
X118707591Y-89845057D01*
X118728820Y-89870990D01*
X118747411Y-89892819D01*
X118757067Y-89903541D01*
X118774124Y-89920877D01*
X118796665Y-89942485D01*
X118821652Y-89965508D01*
X118844173Y-89985470D01*
X118865939Y-90004354D01*
X118885527Y-90021402D01*
X118900946Y-90034878D01*
X118910205Y-90043044D01*
X118910840Y-90043614D01*
X118919818Y-90050609D01*
X118935773Y-90062048D01*
X118956353Y-90076340D01*
X118979206Y-90091895D01*
X119001981Y-90107119D01*
X119022325Y-90120422D01*
X119037887Y-90130213D01*
X119044317Y-90133936D01*
X119054379Y-90139490D01*
X119070831Y-90148784D01*
X119090447Y-90159993D01*
X119094317Y-90162218D01*
X119118862Y-90175555D01*
X119148038Y-90190160D01*
X119179916Y-90205200D01*
X119212568Y-90219844D01*
X119244067Y-90233261D01*
X119272483Y-90244619D01*
X119295889Y-90253086D01*
X119312356Y-90257832D01*
X119317724Y-90258555D01*
X119329302Y-90260790D01*
X119333388Y-90263062D01*
X119340994Y-90266303D01*
X119356516Y-90270914D01*
X119376984Y-90276038D01*
X119383111Y-90277428D01*
X119407994Y-90283034D01*
X119432250Y-90288643D01*
X119451032Y-90293130D01*
X119452555Y-90293507D01*
X119469598Y-90296163D01*
X119494673Y-90298066D01*
X119525340Y-90299229D01*
X119559157Y-90299668D01*
X119593684Y-90299397D01*
X119626480Y-90298433D01*
X119655104Y-90296789D01*
X119677115Y-90294482D01*
X119688666Y-90292055D01*
X119721473Y-90280865D01*
X119745961Y-90271754D01*
X119764427Y-90263518D01*
X119779167Y-90254953D01*
X119792478Y-90244856D01*
X119806655Y-90232022D01*
X119810859Y-90228000D01*
X119836308Y-90200874D01*
X119855982Y-90173170D01*
X119870884Y-90142579D01*
X119882019Y-90106792D01*
X119890390Y-90063499D01*
X119894061Y-90036624D01*
X119897788Y-89985259D01*
X119896567Y-89930571D01*
X119890229Y-89871055D01*
X119878606Y-89805201D01*
X119861528Y-89731503D01*
X119858624Y-89720209D01*
X119852469Y-89697714D01*
X119846670Y-89678534D01*
X119842212Y-89665867D01*
X119841186Y-89663629D01*
X119836606Y-89650681D01*
X119836729Y-89640304D01*
X119841183Y-89636333D01*
X119845029Y-89641065D01*
X119852740Y-89654096D01*
X119863437Y-89673679D01*
X119876237Y-89698067D01*
X119890262Y-89725512D01*
X119904631Y-89754268D01*
X119918462Y-89782586D01*
X119930876Y-89808720D01*
X119940992Y-89830923D01*
X119947930Y-89847446D01*
X119948970Y-89850222D01*
X119971856Y-89914915D01*
X119990547Y-89971266D01*
X120005428Y-90021055D01*
X120016888Y-90066062D01*
X120025311Y-90108066D01*
X120031086Y-90148847D01*
X120034597Y-90190187D01*
X120036233Y-90233863D01*
X120036452Y-90253000D01*
X120035588Y-90308447D01*
X120031997Y-90355911D01*
X120025116Y-90398307D01*
X120014386Y-90438550D01*
X119999243Y-90479553D01*
X119987754Y-90505848D01*
X119976231Y-90527033D01*
X119960002Y-90551663D01*
X119940931Y-90577408D01*
X119920885Y-90601939D01*
X119901728Y-90622923D01*
X119885325Y-90638031D01*
X119877880Y-90643143D01*
X119866418Y-90649985D01*
X119849776Y-90660529D01*
X119835132Y-90670125D01*
X119814305Y-90683506D01*
X119792572Y-90696720D01*
X119780289Y-90703761D01*
X119763356Y-90712146D01*
X119741293Y-90721797D01*
X119716829Y-90731673D01*
X119692697Y-90740733D01*
X119671625Y-90747936D01*
X119656345Y-90752241D01*
X119651148Y-90753000D01*
X119638777Y-90755019D01*
X119629205Y-90758092D01*
X119605541Y-90765048D01*
X119572825Y-90771088D01*
X119533088Y-90776067D01*
X119488363Y-90779839D01*
X119440681Y-90782261D01*
X119392074Y-90783187D01*
X119344575Y-90782473D01*
X119310888Y-90780773D01*
X119252760Y-90775218D01*
X119191845Y-90766590D01*
X119132339Y-90755602D01*
X119078438Y-90742965D01*
X119063666Y-90738865D01*
X119043305Y-90733044D01*
X119024613Y-90727835D01*
X119016444Y-90725634D01*
X118995734Y-90719449D01*
X118968096Y-90710153D01*
X118936848Y-90698937D01*
X118905307Y-90686991D01*
X118877555Y-90675824D01*
X118851232Y-90664412D01*
X118821199Y-90650747D01*
X118789647Y-90635895D01*
X118758765Y-90620922D01*
X118730743Y-90606896D01*
X118707770Y-90594884D01*
X118692036Y-90585952D01*
X118688781Y-90583845D01*
X118674799Y-90574482D01*
X118663313Y-90567222D01*
X118662748Y-90566888D01*
X118653169Y-90561291D01*
X118637535Y-90552170D01*
X118620966Y-90542511D01*
X118591776Y-90524040D01*
X118556769Y-90499540D01*
X118518121Y-90470704D01*
X118478004Y-90439225D01*
X118438592Y-90406794D01*
X118402060Y-90375104D01*
X118380333Y-90355182D01*
X118364179Y-90340031D01*
X118347922Y-90324891D01*
X118344059Y-90321316D01*
X118311330Y-90288850D01*
X118274903Y-90248866D01*
X118236500Y-90203548D01*
X118197842Y-90155078D01*
X118160651Y-90105638D01*
X118126650Y-90057410D01*
X118097560Y-90012577D01*
X118088449Y-89997393D01*
X118080179Y-89984902D01*
X118076114Y-89979610D01*
X118071053Y-89971446D01*
X118062171Y-89955043D01*
X118050362Y-89932222D01*
X118036521Y-89904802D01*
X118021541Y-89874606D01*
X118006317Y-89843454D01*
X117991744Y-89813167D01*
X117978716Y-89785566D01*
X117968126Y-89762473D01*
X117960870Y-89745708D01*
X117959365Y-89741888D01*
X117943812Y-89700467D01*
X117931682Y-89667676D01*
X117922365Y-89641790D01*
X117915254Y-89621086D01*
X117909738Y-89603838D01*
X117905430Y-89589111D01*
X117899648Y-89568826D01*
X117894365Y-89550958D01*
X117891536Y-89541888D01*
X117888526Y-89531097D01*
X117883649Y-89511765D01*
X117877452Y-89486194D01*
X117870481Y-89456691D01*
X117863281Y-89425558D01*
X117856398Y-89395100D01*
X117851780Y-89374116D01*
X117839127Y-89304147D01*
X117830548Y-89236333D01*
X117827486Y-89207631D01*
X117823883Y-89174203D01*
X117820421Y-89142367D01*
X117819760Y-89136333D01*
X117817800Y-89112620D01*
X117816104Y-89080991D01*
X117814797Y-89044639D01*
X117814002Y-89006758D01*
X117813817Y-88982494D01*
X117813408Y-88940073D01*
X117812327Y-88908517D01*
X117810578Y-88887897D01*
X117808166Y-88878283D01*
X117807581Y-88877672D01*
X117802346Y-88876234D01*
X117794356Y-88877757D01*
X117782112Y-88882918D01*
X117764115Y-88892391D01*
X117738866Y-88906854D01*
X117725680Y-88914613D01*
X117687449Y-88942307D01*
X117649440Y-88979444D01*
X117612882Y-89024405D01*
X117579008Y-89075568D01*
X117549048Y-89131311D01*
X117532158Y-89169474D01*
X117526602Y-89183171D01*
X117516800Y-89168211D01*
X117507676Y-89150129D01*
X117499729Y-89124872D01*
X117492386Y-89090570D01*
X117491621Y-89086333D01*
X117487842Y-89065561D01*
X117483350Y-89041459D01*
X117481322Y-89030777D01*
X117474361Y-88990242D01*
X117469338Y-88950387D01*
X117466026Y-88908302D01*
X117464199Y-88861077D01*
X117463629Y-88805803D01*
X117463629Y-88803640D01*
X117464230Y-88748047D01*
X117466203Y-88701501D01*
X117469872Y-88661984D01*
X117475557Y-88627481D01*
X117483581Y-88595977D01*
X117494265Y-88565456D01*
X117506004Y-88538066D01*
X117513181Y-88522002D01*
X117517981Y-88510466D01*
X117519222Y-88506680D01*
X117522585Y-88499019D01*
X117531588Y-88485124D01*
X117544599Y-88467165D01*
X117559986Y-88447309D01*
X117576119Y-88427726D01*
X117591365Y-88410584D01*
X117592123Y-88409778D01*
X117639218Y-88367756D01*
X117693302Y-88334112D01*
X117754717Y-88308649D01*
X117780333Y-88301000D01*
X117801892Y-88296681D01*
X117831780Y-88292786D01*
X117867214Y-88289586D01*
X117905414Y-88287354D01*
X117928078Y-88286602D01*
X117933993Y-88284481D01*
X117940800Y-88277459D01*
X117949425Y-88264142D01*
X117960796Y-88243137D01*
X117972522Y-88219800D01*
X118005333Y-88153267D01*
X118059172Y-88153133D01*
X118082515Y-88153544D01*
G37*
G36*
X117315802Y-88254070D02*
G01*
X117319222Y-88258555D01*
X117315265Y-88263952D01*
X117314035Y-88264111D01*
X117308188Y-88267726D01*
X117296141Y-88277563D01*
X117279667Y-88292105D01*
X117261122Y-88309289D01*
X117211516Y-88362954D01*
X117167220Y-88424402D01*
X117130262Y-88490802D01*
X117128424Y-88494666D01*
X117118332Y-88515913D01*
X117109541Y-88534133D01*
X117103489Y-88546356D01*
X117102236Y-88548757D01*
X117097689Y-88562227D01*
X117097000Y-88568480D01*
X117094640Y-88579957D01*
X117092383Y-88583833D01*
X117088430Y-88592255D01*
X117082568Y-88609984D01*
X117075257Y-88635470D01*
X117066958Y-88667166D01*
X117063576Y-88680777D01*
X117051503Y-88742826D01*
X117043350Y-88813466D01*
X117039234Y-88890849D01*
X117039272Y-88973126D01*
X117041559Y-89028000D01*
X117043590Y-89059825D01*
X117045988Y-89089591D01*
X117049026Y-89119637D01*
X117052978Y-89152302D01*
X117058118Y-89189924D01*
X117064720Y-89234845D01*
X117069164Y-89264111D01*
X117081856Y-89335409D01*
X117098554Y-89411510D01*
X117118157Y-89487996D01*
X117139566Y-89560447D01*
X117152848Y-89600222D01*
X117159874Y-89620901D01*
X117165924Y-89639892D01*
X117168908Y-89650222D01*
X117173791Y-89665060D01*
X117181383Y-89684266D01*
X117185939Y-89694666D01*
X117193944Y-89712484D01*
X117200528Y-89727640D01*
X117202963Y-89733555D01*
X117214476Y-89760484D01*
X117230536Y-89794488D01*
X117249885Y-89833164D01*
X117271265Y-89874115D01*
X117293417Y-89914938D01*
X117315084Y-89953234D01*
X117335008Y-89986603D01*
X117338672Y-89992472D01*
X117373785Y-90046565D01*
X117409658Y-90098265D01*
X117447403Y-90148917D01*
X117488134Y-90199866D01*
X117532961Y-90252456D01*
X117582998Y-90308033D01*
X117639357Y-90367943D01*
X117703151Y-90433528D01*
X117705130Y-90435536D01*
X117776269Y-90506360D01*
X117841683Y-90568725D01*
X117902053Y-90623249D01*
X117958060Y-90670552D01*
X117999777Y-90703305D01*
X118016460Y-90715586D01*
X118037479Y-90730553D01*
X118061026Y-90746978D01*
X118085293Y-90763635D01*
X118108471Y-90779294D01*
X118128753Y-90792730D01*
X118144330Y-90802714D01*
X118153393Y-90808018D01*
X118154815Y-90808555D01*
X118160770Y-90811301D01*
X118173199Y-90818452D01*
X118187169Y-90827056D01*
X118204048Y-90837491D01*
X118218010Y-90845714D01*
X118224777Y-90849326D01*
X118235121Y-90854733D01*
X118248945Y-90862756D01*
X118249948Y-90863365D01*
X118275165Y-90877762D01*
X118308692Y-90895432D01*
X118348562Y-90915431D01*
X118392806Y-90936815D01*
X118439453Y-90958640D01*
X118486537Y-90979961D01*
X118532088Y-90999835D01*
X118552555Y-91008469D01*
X118600811Y-91027579D01*
X118656493Y-91047979D01*
X118716190Y-91068510D01*
X118776491Y-91088013D01*
X118833983Y-91105327D01*
X118855333Y-91111354D01*
X118875627Y-91117071D01*
X118893499Y-91122301D01*
X118902555Y-91125104D01*
X118915726Y-91128660D01*
X118937387Y-91133665D01*
X118965094Y-91139600D01*
X118996402Y-91145945D01*
X119028866Y-91152179D01*
X119035888Y-91153478D01*
X119059565Y-91158027D01*
X119084178Y-91163056D01*
X119093567Y-91165079D01*
X119124764Y-91170513D01*
X119164677Y-91175245D01*
X119210928Y-91179177D01*
X119261138Y-91182211D01*
X119312929Y-91184249D01*
X119363923Y-91185195D01*
X119411741Y-91184949D01*
X119454005Y-91183414D01*
X119483111Y-91181096D01*
X119512248Y-91177780D01*
X119537114Y-91174468D01*
X119560562Y-91170632D01*
X119585444Y-91165744D01*
X119614613Y-91159278D01*
X119650920Y-91150705D01*
X119662277Y-91147971D01*
X119684669Y-91141394D01*
X119713643Y-91131194D01*
X119745811Y-91118651D01*
X119777784Y-91105046D01*
X119787401Y-91100686D01*
X119831206Y-91077508D01*
X119876901Y-91048109D01*
X119921440Y-91014786D01*
X119961779Y-90979835D01*
X119994872Y-90945553D01*
X119998009Y-90941837D01*
X120027917Y-90902417D01*
X120057258Y-90857600D01*
X120083236Y-90811898D01*
X120099816Y-90777511D01*
X120110649Y-90753882D01*
X120118933Y-90739473D01*
X120125035Y-90734610D01*
X120129320Y-90739616D01*
X120132156Y-90754818D01*
X120133907Y-90780540D01*
X120134765Y-90808555D01*
X120134556Y-90868450D01*
X120131071Y-90928584D01*
X120124027Y-90991515D01*
X120113147Y-91059801D01*
X120099833Y-91128000D01*
X120093709Y-91157352D01*
X120087962Y-91184975D01*
X120083210Y-91207894D01*
X120080070Y-91223140D01*
X120079912Y-91223912D01*
X120075551Y-91241358D01*
X120070644Y-91255586D01*
X120069375Y-91258269D01*
X120064807Y-91272431D01*
X120063666Y-91282928D01*
X120061504Y-91299613D01*
X120058487Y-91309683D01*
X120054195Y-91321888D01*
X120048448Y-91340270D01*
X120043933Y-91355777D01*
X120038539Y-91374050D01*
X120030979Y-91398471D01*
X120022063Y-91426555D01*
X120012600Y-91455815D01*
X120003398Y-91483768D01*
X119995267Y-91507926D01*
X119989015Y-91525805D01*
X119986065Y-91533555D01*
X119982140Y-91543059D01*
X119975098Y-91560258D01*
X119966004Y-91582551D01*
X119957683Y-91603000D01*
X119926082Y-91676344D01*
X119889652Y-91753354D01*
X119849896Y-91831200D01*
X119808316Y-91907053D01*
X119766415Y-91978082D01*
X119725694Y-92041460D01*
X119722000Y-92046894D01*
X119709318Y-92065127D01*
X119693127Y-92087928D01*
X119674702Y-92113554D01*
X119655316Y-92140264D01*
X119636243Y-92166316D01*
X119618759Y-92189968D01*
X119604136Y-92209478D01*
X119593650Y-92223104D01*
X119589044Y-92228653D01*
X119582945Y-92235771D01*
X119572103Y-92249066D01*
X119558617Y-92265960D01*
X119555333Y-92270119D01*
X119536183Y-92292841D01*
X119510118Y-92321455D01*
X119478590Y-92354542D01*
X119443051Y-92390684D01*
X119404953Y-92428461D01*
X119365749Y-92466456D01*
X119326890Y-92503250D01*
X119289830Y-92537425D01*
X119256020Y-92567560D01*
X119226912Y-92592239D01*
X119219222Y-92598440D01*
X119178930Y-92629857D01*
X119136544Y-92661876D01*
X119093492Y-92693496D01*
X119051206Y-92723717D01*
X119011115Y-92751541D01*
X118974650Y-92775968D01*
X118943240Y-92795998D01*
X118918315Y-92810631D01*
X118908111Y-92815911D01*
X118899270Y-92820641D01*
X118884170Y-92829172D01*
X118866444Y-92839444D01*
X118846459Y-92850715D01*
X118820701Y-92864626D01*
X118793372Y-92878923D01*
X118780333Y-92885563D01*
X118757281Y-92897250D01*
X118737006Y-92907670D01*
X118722164Y-92915450D01*
X118716444Y-92918583D01*
X118705352Y-92924359D01*
X118688211Y-92932567D01*
X118667614Y-92942049D01*
X118646158Y-92951648D01*
X118626435Y-92960206D01*
X118611041Y-92966566D01*
X118602571Y-92969570D01*
X118601930Y-92969666D01*
X118594686Y-92971783D01*
X118580780Y-92977253D01*
X118567985Y-92982784D01*
X118545586Y-92992691D01*
X118526827Y-93000595D01*
X118508621Y-93007664D01*
X118487876Y-93015066D01*
X118461503Y-93023966D01*
X118441507Y-93030574D01*
X118369808Y-93053590D01*
X118306404Y-93072653D01*
X118249421Y-93088295D01*
X118196986Y-93101045D01*
X118177555Y-93105307D01*
X118141578Y-93112881D01*
X118112988Y-93118663D01*
X118088325Y-93123288D01*
X118064133Y-93127389D01*
X118036954Y-93131602D01*
X118022000Y-93133824D01*
X117995293Y-93137990D01*
X117971031Y-93142186D01*
X117952329Y-93145852D01*
X117943827Y-93147915D01*
X117934638Y-93149042D01*
X117915932Y-93150027D01*
X117888933Y-93150872D01*
X117854868Y-93151576D01*
X117814960Y-93152141D01*
X117770436Y-93152568D01*
X117722520Y-93152857D01*
X117672438Y-93153011D01*
X117621415Y-93153028D01*
X117570677Y-93152911D01*
X117521448Y-93152661D01*
X117474953Y-93152278D01*
X117432419Y-93151763D01*
X117395069Y-93151117D01*
X117364130Y-93150342D01*
X117340827Y-93149437D01*
X117326384Y-93148405D01*
X117322000Y-93147444D01*
X117314666Y-93143797D01*
X117301013Y-93141955D01*
X117298061Y-93141900D01*
X117278880Y-93140566D01*
X117250725Y-93136796D01*
X117215370Y-93130959D01*
X117174592Y-93123424D01*
X117130167Y-93114561D01*
X117083870Y-93104738D01*
X117037478Y-93094326D01*
X116992766Y-93083694D01*
X116951510Y-93073211D01*
X116915486Y-93063246D01*
X116905333Y-93060220D01*
X116883153Y-93053311D01*
X116857631Y-93045123D01*
X116831731Y-93036635D01*
X116808420Y-93028826D01*
X116790663Y-93022674D01*
X116783111Y-93019873D01*
X116770820Y-93015074D01*
X116754158Y-93008685D01*
X116749777Y-93007022D01*
X116592922Y-92941985D01*
X116442805Y-92868220D01*
X116298955Y-92785450D01*
X116160901Y-92693402D01*
X116028173Y-92591801D01*
X116006912Y-92574233D01*
X115934857Y-92510901D01*
X115861020Y-92440084D01*
X115788042Y-92364493D01*
X115718565Y-92286835D01*
X115671761Y-92230626D01*
X115605930Y-92146059D01*
X115547123Y-92064176D01*
X115493430Y-91981973D01*
X115442943Y-91896447D01*
X115393754Y-91804592D01*
X115366530Y-91750222D01*
X115332278Y-91678300D01*
X115302955Y-91612033D01*
X115277112Y-91547974D01*
X115253301Y-91482678D01*
X115249774Y-91472444D01*
X115243440Y-91454249D01*
X115237926Y-91438939D01*
X115235888Y-91433555D01*
X115231853Y-91421753D01*
X115225681Y-91401850D01*
X115218140Y-91376472D01*
X115209997Y-91348244D01*
X115202018Y-91319790D01*
X115194971Y-91293735D01*
X115194485Y-91291888D01*
X115188632Y-91269732D01*
X115183065Y-91248885D01*
X115179664Y-91236333D01*
X115176173Y-91222484D01*
X115171180Y-91201234D01*
X115165489Y-91176053D01*
X115162255Y-91161333D01*
X115159908Y-91150186D01*
X115157880Y-91139328D01*
X115156145Y-91127872D01*
X115154675Y-91114932D01*
X115153442Y-91099622D01*
X115152419Y-91081057D01*
X115151577Y-91058350D01*
X115150891Y-91030616D01*
X115150331Y-90996967D01*
X115149871Y-90956519D01*
X115149482Y-90908386D01*
X115149138Y-90851681D01*
X115148810Y-90785519D01*
X115148518Y-90719868D01*
X115148223Y-90639096D01*
X115148086Y-90569001D01*
X115148113Y-90509150D01*
X115148309Y-90459111D01*
X115148678Y-90418449D01*
X115149227Y-90386733D01*
X115149959Y-90363529D01*
X115150880Y-90348404D01*
X115151996Y-90340926D01*
X115152937Y-90340048D01*
X115156769Y-90348461D01*
X115160675Y-90364300D01*
X115163444Y-90381513D01*
X115169533Y-90417666D01*
X115179629Y-90462303D01*
X115193222Y-90513756D01*
X115209803Y-90570358D01*
X115228863Y-90630440D01*
X115249891Y-90692335D01*
X115272379Y-90754375D01*
X115295817Y-90814892D01*
X115295848Y-90814969D01*
X115305389Y-90838520D01*
X115314455Y-90860264D01*
X115324477Y-90883551D01*
X115336887Y-90911729D01*
X115345362Y-90930777D01*
X115353575Y-90948472D01*
X115365199Y-90972520D01*
X115379398Y-91001290D01*
X115395342Y-91033152D01*
X115412196Y-91066474D01*
X115429128Y-91099627D01*
X115445306Y-91130979D01*
X115459895Y-91158899D01*
X115472064Y-91181757D01*
X115480979Y-91197922D01*
X115485807Y-91205764D01*
X115485818Y-91205777D01*
X115490826Y-91213466D01*
X115499013Y-91227407D01*
X115505578Y-91239111D01*
X115523272Y-91269271D01*
X115546669Y-91306155D01*
X115574466Y-91347863D01*
X115605360Y-91392494D01*
X115638046Y-91438149D01*
X115671222Y-91482926D01*
X115687186Y-91503872D01*
X115705256Y-91527259D01*
X115720591Y-91546793D01*
X115734602Y-91564093D01*
X115748699Y-91580782D01*
X115764291Y-91598480D01*
X115782790Y-91618810D01*
X115805606Y-91643393D01*
X115834148Y-91673850D01*
X115845909Y-91686364D01*
X115919704Y-91761924D01*
X115994485Y-91832315D01*
X116073192Y-91900151D01*
X116158762Y-91968050D01*
X116183111Y-91986497D01*
X116209707Y-92006477D01*
X116229288Y-92021159D01*
X116243743Y-92031893D01*
X116254960Y-92040027D01*
X116264829Y-92046910D01*
X116275239Y-92053891D01*
X116288078Y-92062318D01*
X116302679Y-92071865D01*
X116324717Y-92086334D01*
X116346190Y-92100499D01*
X116363228Y-92111807D01*
X116366444Y-92113956D01*
X116394172Y-92131516D01*
X116429857Y-92152558D01*
X116471355Y-92175943D01*
X116516518Y-92200526D01*
X116563204Y-92225166D01*
X116609265Y-92248721D01*
X116652557Y-92270049D01*
X116690935Y-92288008D01*
X116705333Y-92294384D01*
X116719789Y-92300945D01*
X116738992Y-92310030D01*
X116751679Y-92316191D01*
X116768752Y-92324053D01*
X116782312Y-92329349D01*
X116788135Y-92330777D01*
X116797028Y-92333055D01*
X116811241Y-92338770D01*
X116816936Y-92341418D01*
X116840331Y-92351567D01*
X116872727Y-92363916D01*
X116912376Y-92377862D01*
X116957528Y-92392799D01*
X117006436Y-92408123D01*
X117033111Y-92416145D01*
X117057256Y-92423315D01*
X117079196Y-92429857D01*
X117095446Y-92434731D01*
X117099777Y-92436043D01*
X117113745Y-92439885D01*
X117134060Y-92444990D01*
X117155333Y-92450022D01*
X117178504Y-92455448D01*
X117200603Y-92460831D01*
X117215554Y-92464665D01*
X117240685Y-92470580D01*
X117274514Y-92477303D01*
X117314688Y-92484468D01*
X117358858Y-92491705D01*
X117404671Y-92498646D01*
X117449776Y-92504924D01*
X117491822Y-92510168D01*
X117528458Y-92514011D01*
X117533111Y-92514424D01*
X117586812Y-92518222D01*
X117646662Y-92521015D01*
X117709989Y-92522782D01*
X117774119Y-92523503D01*
X117836380Y-92523158D01*
X117894098Y-92521726D01*
X117944601Y-92519186D01*
X117963666Y-92517728D01*
X118004482Y-92514026D01*
X118035191Y-92510809D01*
X118056776Y-92507887D01*
X118070220Y-92505076D01*
X118076507Y-92502187D01*
X118076620Y-92499033D01*
X118073854Y-92496756D01*
X118063123Y-92493311D01*
X118049777Y-92492020D01*
X118035540Y-92490761D01*
X118015318Y-92487525D01*
X117997000Y-92483780D01*
X117971242Y-92478129D01*
X117943552Y-92472351D01*
X117927555Y-92469177D01*
X117891700Y-92461719D01*
X117849153Y-92451952D01*
X117803850Y-92440815D01*
X117759725Y-92429249D01*
X117755333Y-92428052D01*
X117713824Y-92416642D01*
X117681518Y-92407637D01*
X117656883Y-92400576D01*
X117638385Y-92394999D01*
X117624492Y-92390446D01*
X117613672Y-92386455D01*
X117605333Y-92382981D01*
X117592338Y-92377979D01*
X117572355Y-92371065D01*
X117549044Y-92363490D01*
X117541444Y-92361120D01*
X117519687Y-92354039D01*
X117501910Y-92347561D01*
X117490882Y-92342725D01*
X117488944Y-92341447D01*
X117479171Y-92336959D01*
X117473818Y-92336333D01*
X117463545Y-92334091D01*
X117447441Y-92328312D01*
X117434651Y-92322808D01*
X117415866Y-92314447D01*
X117391099Y-92303835D01*
X117364696Y-92292824D01*
X117355333Y-92289000D01*
X117328458Y-92277494D01*
X117294359Y-92261981D01*
X117255301Y-92243576D01*
X117213551Y-92223394D01*
X117171374Y-92202552D01*
X117131038Y-92182166D01*
X117094807Y-92163350D01*
X117064948Y-92147221D01*
X117049777Y-92138557D01*
X116946243Y-92075719D01*
X116852806Y-92015611D01*
X116768901Y-91957842D01*
X116693961Y-91902025D01*
X116628004Y-91848269D01*
X116593130Y-91818243D01*
X116564422Y-91793070D01*
X116539484Y-91770521D01*
X116515917Y-91748372D01*
X116491324Y-91724394D01*
X116463308Y-91696361D01*
X116450727Y-91683637D01*
X116396037Y-91627534D01*
X116347991Y-91576582D01*
X116304832Y-91528659D01*
X116264803Y-91481645D01*
X116226146Y-91433418D01*
X116187104Y-91381859D01*
X116145919Y-91324845D01*
X116105411Y-91266888D01*
X116079750Y-91227876D01*
X116051393Y-91181578D01*
X116021772Y-91130593D01*
X115992319Y-91077521D01*
X115964467Y-91024960D01*
X115939646Y-90975510D01*
X115919291Y-90931768D01*
X115914065Y-90919666D01*
X115904947Y-90898224D01*
X115895776Y-90876929D01*
X115891393Y-90866888D01*
X115877892Y-90834714D01*
X115862883Y-90796467D01*
X115848118Y-90756695D01*
X115839957Y-90733555D01*
X115832209Y-90711151D01*
X115824870Y-90690092D01*
X115819629Y-90675222D01*
X115812967Y-90654639D01*
X115804533Y-90625732D01*
X115794977Y-90591022D01*
X115784950Y-90553029D01*
X115775102Y-90514272D01*
X115766081Y-90477273D01*
X115758539Y-90444551D01*
X115753125Y-90418627D01*
X115752288Y-90414111D01*
X115745166Y-90374148D01*
X115739418Y-90341109D01*
X115734667Y-90312426D01*
X115730534Y-90285531D01*
X115726642Y-90257859D01*
X115722614Y-90226840D01*
X115718072Y-90189909D01*
X115712659Y-90144666D01*
X115710762Y-90122442D01*
X115709197Y-90091571D01*
X115707961Y-90053708D01*
X115707053Y-90010509D01*
X115706471Y-89963631D01*
X115706213Y-89914731D01*
X115706278Y-89865464D01*
X115706663Y-89817487D01*
X115707367Y-89772456D01*
X115708388Y-89732027D01*
X115709724Y-89697858D01*
X115711374Y-89671603D01*
X115713182Y-89655777D01*
X115717644Y-89628177D01*
X115722151Y-89597644D01*
X115724797Y-89578000D01*
X115728252Y-89553771D01*
X115732289Y-89529891D01*
X115735474Y-89514111D01*
X115740110Y-89493352D01*
X115745290Y-89469265D01*
X115747526Y-89458555D01*
X115757849Y-89414606D01*
X115772737Y-89360779D01*
X115792127Y-89297295D01*
X115798296Y-89278000D01*
X115805852Y-89255658D01*
X115812732Y-89237241D01*
X115817911Y-89225403D01*
X115819600Y-89222722D01*
X115824109Y-89212984D01*
X115824777Y-89207369D01*
X115827453Y-89193780D01*
X115830095Y-89187646D01*
X115834247Y-89179500D01*
X115842251Y-89163284D01*
X115853153Y-89140951D01*
X115866000Y-89114448D01*
X115874203Y-89097444D01*
X115893718Y-89057314D01*
X115910252Y-89024517D01*
X115925395Y-88996257D01*
X115940738Y-88969743D01*
X115957873Y-88942178D01*
X115978391Y-88910769D01*
X115992857Y-88889111D01*
X116022755Y-88845681D01*
X116050921Y-88807466D01*
X116079518Y-88771860D01*
X116110709Y-88736257D01*
X116146656Y-88698051D01*
X116177555Y-88666608D01*
X116209029Y-88635798D01*
X116239850Y-88607095D01*
X116268939Y-88581373D01*
X116295221Y-88559510D01*
X116317615Y-88542382D01*
X116335046Y-88530865D01*
X116346434Y-88525835D01*
X116350019Y-88526390D01*
X116348061Y-88531610D01*
X116340608Y-88543146D01*
X116329175Y-88558691D01*
X116326781Y-88561776D01*
X116303610Y-88592553D01*
X116282842Y-88622974D01*
X116263260Y-88655165D01*
X116243649Y-88691254D01*
X116222793Y-88733367D01*
X116199478Y-88783632D01*
X116197452Y-88788109D01*
X116189119Y-88807539D01*
X116183028Y-88823623D01*
X116180366Y-88833200D01*
X116180333Y-88833754D01*
X116178238Y-88843869D01*
X116173128Y-88858192D01*
X116172465Y-88859755D01*
X116164635Y-88880882D01*
X116155683Y-88909815D01*
X116146488Y-88943432D01*
X116137925Y-88978609D01*
X116133813Y-88997444D01*
X116114214Y-89108047D01*
X116101779Y-89218313D01*
X116096460Y-89330168D01*
X116098206Y-89445537D01*
X116106969Y-89566348D01*
X116116964Y-89653000D01*
X116121934Y-89690348D01*
X116126333Y-89721687D01*
X116130626Y-89749716D01*
X116135275Y-89777134D01*
X116140744Y-89806643D01*
X116147496Y-89840940D01*
X116155996Y-89882728D01*
X116158449Y-89894666D01*
X116163812Y-89919097D01*
X116170994Y-89949472D01*
X116179475Y-89983813D01*
X116188734Y-90020142D01*
X116198248Y-90056482D01*
X116207498Y-90090854D01*
X116215962Y-90121282D01*
X116223120Y-90145786D01*
X116228449Y-90162390D01*
X116230169Y-90166888D01*
X116235607Y-90181714D01*
X116237765Y-90189111D01*
X116242333Y-90204214D01*
X116250187Y-90227129D01*
X116260410Y-90255380D01*
X116272085Y-90286494D01*
X116284293Y-90317998D01*
X116296117Y-90347416D01*
X116299583Y-90355777D01*
X116306338Y-90371807D01*
X116312524Y-90386073D01*
X116319182Y-90400834D01*
X116327352Y-90418347D01*
X116338075Y-90440870D01*
X116352393Y-90470660D01*
X116355929Y-90478000D01*
X116373720Y-90514446D01*
X116389621Y-90545729D01*
X116405157Y-90574566D01*
X116421853Y-90603673D01*
X116441235Y-90635765D01*
X116464826Y-90673558D01*
X116472901Y-90686333D01*
X116507809Y-90738355D01*
X116549412Y-90795219D01*
X116595853Y-90854676D01*
X116645272Y-90914476D01*
X116695812Y-90972370D01*
X116745616Y-91026109D01*
X116792063Y-91072714D01*
X116854223Y-91129999D01*
X116923937Y-91189753D01*
X117001945Y-91252581D01*
X117088991Y-91319091D01*
X117133116Y-91351706D01*
X117140717Y-91357334D01*
X117153339Y-91366730D01*
X117159134Y-91371055D01*
X117171867Y-91380163D01*
X117180547Y-91385629D01*
X117182300Y-91386333D01*
X117187875Y-91389080D01*
X117200689Y-91396472D01*
X117218574Y-91407240D01*
X117231282Y-91415068D01*
X117266143Y-91435626D01*
X117308228Y-91458726D01*
X117354435Y-91482795D01*
X117401665Y-91506261D01*
X117446820Y-91527552D01*
X117486799Y-91545096D01*
X117491444Y-91547016D01*
X117528110Y-91562054D01*
X117556071Y-91573567D01*
X117576917Y-91582212D01*
X117592237Y-91588649D01*
X117599777Y-91591871D01*
X117615800Y-91598233D01*
X117637620Y-91606235D01*
X117661032Y-91614404D01*
X117681831Y-91621269D01*
X117694222Y-91624952D01*
X117708256Y-91628998D01*
X117728194Y-91635161D01*
X117747000Y-91641219D01*
X117814405Y-91662010D01*
X117860888Y-91674619D01*
X117879560Y-91679435D01*
X117902190Y-91685386D01*
X117913666Y-91688446D01*
X117936412Y-91694320D01*
X117959588Y-91699959D01*
X117969222Y-91702164D01*
X117988560Y-91706486D01*
X118012623Y-91711935D01*
X118030333Y-91715984D01*
X118055439Y-91721269D01*
X118084662Y-91726722D01*
X118108111Y-91730600D01*
X118135736Y-91734912D01*
X118167235Y-91740010D01*
X118194222Y-91744527D01*
X118266856Y-91755080D01*
X118347727Y-91763519D01*
X118434144Y-91769749D01*
X118523418Y-91773675D01*
X118612858Y-91775202D01*
X118699775Y-91774237D01*
X118781480Y-91770685D01*
X118830968Y-91766902D01*
X118867577Y-91763062D01*
X118895168Y-91759152D01*
X118913319Y-91755290D01*
X118921611Y-91751595D01*
X118919622Y-91748184D01*
X118907948Y-91745334D01*
X118888797Y-91742598D01*
X118868099Y-91740071D01*
X118866444Y-91739892D01*
X118850699Y-91737749D01*
X118828123Y-91734105D01*
X118802780Y-91729627D01*
X118794222Y-91728027D01*
X118768356Y-91723131D01*
X118743399Y-91718439D01*
X118723672Y-91714761D01*
X118719222Y-91713940D01*
X118693777Y-91708668D01*
X118661097Y-91700993D01*
X118624580Y-91691728D01*
X118608111Y-91687340D01*
X118566381Y-91675940D01*
X118532215Y-91666296D01*
X118502409Y-91657436D01*
X118473754Y-91648389D01*
X118443044Y-91638185D01*
X118422162Y-91631057D01*
X118373111Y-91614048D01*
X118331681Y-91599238D01*
X118295348Y-91585579D01*
X118261584Y-91572022D01*
X118227863Y-91557520D01*
X118191658Y-91541025D01*
X118150443Y-91521489D01*
X118105333Y-91499638D01*
X118052495Y-91473637D01*
X118007273Y-91450715D01*
X117967128Y-91429440D01*
X117929521Y-91408385D01*
X117891911Y-91386118D01*
X117851760Y-91361211D01*
X117806528Y-91332234D01*
X117797000Y-91326052D01*
X117739601Y-91286943D01*
X117677701Y-91241536D01*
X117614022Y-91191976D01*
X117551284Y-91140406D01*
X117492208Y-91088973D01*
X117466948Y-91065891D01*
X117443035Y-91043063D01*
X117415396Y-91015704D01*
X117385539Y-90985400D01*
X117354969Y-90953739D01*
X117325193Y-90922305D01*
X117297718Y-90892687D01*
X117274051Y-90866470D01*
X117255696Y-90845241D01*
X117246330Y-90833555D01*
X117235411Y-90819953D01*
X117220811Y-90802878D01*
X117211005Y-90791888D01*
X117190002Y-90767135D01*
X117164617Y-90734453D01*
X117136012Y-90695544D01*
X117105351Y-90652108D01*
X117073794Y-90605845D01*
X117042505Y-90558458D01*
X117012645Y-90511646D01*
X116985377Y-90467110D01*
X116964236Y-90430777D01*
X116954832Y-90413371D01*
X116941770Y-90388188D01*
X116926174Y-90357482D01*
X116909168Y-90323508D01*
X116891876Y-90288517D01*
X116875420Y-90254765D01*
X116860925Y-90224504D01*
X116853448Y-90208555D01*
X116843628Y-90186005D01*
X116831396Y-90155894D01*
X116817883Y-90121195D01*
X116804218Y-90084880D01*
X116791529Y-90049920D01*
X116780948Y-90019287D01*
X116777444Y-90008555D01*
X116771309Y-89989651D01*
X116765940Y-89973690D01*
X116763521Y-89966888D01*
X116759954Y-89955873D01*
X116754792Y-89938142D01*
X116749728Y-89919666D01*
X116743387Y-89896180D01*
X116736921Y-89872757D01*
X116732899Y-89858555D01*
X116727339Y-89837795D01*
X116721487Y-89813705D01*
X116719087Y-89803000D01*
X116713935Y-89779281D01*
X116708093Y-89752615D01*
X116705114Y-89739111D01*
X116700254Y-89714969D01*
X116695294Y-89686887D01*
X116692184Y-89666888D01*
X116688318Y-89640091D01*
X116683862Y-89609624D01*
X116680412Y-89586333D01*
X116675903Y-89549079D01*
X116672050Y-89503360D01*
X116668963Y-89451808D01*
X116666752Y-89397057D01*
X116665527Y-89341738D01*
X116665399Y-89288484D01*
X116666214Y-89247444D01*
X116669105Y-89184902D01*
X116673737Y-89128977D01*
X116680592Y-89075243D01*
X116690152Y-89019278D01*
X116692211Y-89008555D01*
X116706562Y-88947110D01*
X116725853Y-88882835D01*
X116748947Y-88818723D01*
X116774705Y-88757769D01*
X116801991Y-88702965D01*
X116820143Y-88671844D01*
X116830585Y-88654738D01*
X116838180Y-88641397D01*
X116841418Y-88634487D01*
X116841444Y-88634265D01*
X116844653Y-88628391D01*
X116853071Y-88616471D01*
X116864885Y-88601068D01*
X116865055Y-88600854D01*
X116880893Y-88580850D01*
X116899506Y-88557288D01*
X116916444Y-88535802D01*
X116950041Y-88497015D01*
X116990734Y-88456231D01*
X117035528Y-88416104D01*
X117081430Y-88379291D01*
X117125445Y-88348445D01*
X117133307Y-88343503D01*
X117164268Y-88325065D01*
X117197396Y-88306365D01*
X117228616Y-88289657D01*
X117249777Y-88279098D01*
X117268523Y-88270124D01*
X117284266Y-88262439D01*
X117292757Y-88258144D01*
X117305761Y-88253605D01*
X117315802Y-88254070D01*
G37*
D12*
%TO.C,JP1*%
X116317000Y-111339000D02*
X116317000Y-106199000D01*
X118977000Y-106199000D02*
X116317000Y-106199000D01*
X118977000Y-111339000D02*
X116317000Y-111339000D01*
X118977000Y-111339000D02*
X118977000Y-106199000D01*
X118977000Y-112609000D02*
X118977000Y-113939000D01*
X118977000Y-113939000D02*
X117647000Y-113939000D01*
%TO.C,J2*%
X115882000Y-96116000D02*
X117012000Y-96116000D01*
X115882000Y-96876000D02*
X115882000Y-96116000D01*
X115882000Y-97636000D02*
X115882000Y-102651000D01*
X115882000Y-97636000D02*
X116448529Y-97636000D01*
X115882000Y-102651000D02*
X116704470Y-102651000D01*
X117319530Y-102651000D02*
X117974470Y-102651000D01*
X117575471Y-97636000D02*
X117718529Y-97636000D01*
X117772000Y-96181000D02*
X117974470Y-96181000D01*
X117772000Y-96312529D02*
X117772000Y-96181000D01*
X117772000Y-97582529D02*
X117772000Y-97439471D01*
X118589530Y-96181000D02*
X119412000Y-96181000D01*
X118589530Y-102651000D02*
X119412000Y-102651000D01*
X119412000Y-96181000D02*
X119412000Y-102651000D01*
%TD*%
M02*
