%TF.GenerationSoftware,KiCad,Pcbnew,8.0.3*%
%TF.CreationDate,2024-06-30T20:41:50+08:00*%
%TF.ProjectId,WT_Jlink_Adapter,57545f4a-6c69-46e6-9b5f-416461707465,rev?*%
%TF.SameCoordinates,Original*%
%TF.FileFunction,Copper,L2,Bot*%
%TF.FilePolarity,Positive*%
%FSLAX46Y46*%
G04 Gerber Fmt 4.6, Leading zero omitted, Abs format (unit mm)*
G04 Created by KiCad (PCBNEW 8.0.3) date 2024-06-30 20:41:50*
%MOMM*%
%LPD*%
G01*
G04 APERTURE LIST*
%TA.AperFunction,ComponentPad*%
%ADD10R,1.700000X1.700000*%
%TD*%
%TA.AperFunction,ComponentPad*%
%ADD11O,1.700000X1.700000*%
%TD*%
%TA.AperFunction,ComponentPad*%
%ADD12R,1.000000X1.000000*%
%TD*%
%TA.AperFunction,ComponentPad*%
%ADD13O,1.000000X1.000000*%
%TD*%
%TA.AperFunction,ViaPad*%
%ADD14C,0.600000*%
%TD*%
%TA.AperFunction,Conductor*%
%ADD15C,0.200000*%
%TD*%
G04 APERTURE END LIST*
D10*
%TO.P,J1,1,Pin_1*%
%TO.N,/VTREF*%
X112567000Y-90018000D03*
D11*
%TO.P,J1,2,Pin_2*%
%TO.N,unconnected-(J1-Pin_2-Pad2)*%
X110027000Y-90018000D03*
%TO.P,J1,3,Pin_3*%
%TO.N,unconnected-(J1-Pin_3-Pad3)*%
X112567000Y-92558000D03*
%TO.P,J1,4,Pin_4*%
%TO.N,/GND*%
X110027000Y-92558000D03*
%TO.P,J1,5,Pin_5*%
%TO.N,/TXD-TDI*%
X112567000Y-95098000D03*
%TO.P,J1,6,Pin_6*%
%TO.N,/GND*%
X110027000Y-95098000D03*
%TO.P,J1,7,Pin_7*%
%TO.N,/SWDIO-TMS*%
X112567000Y-97638000D03*
%TO.P,J1,8,Pin_8*%
%TO.N,/GND*%
X110027000Y-97638000D03*
%TO.P,J1,9,Pin_9*%
%TO.N,/SWCLK-TCK*%
X112567000Y-100178000D03*
%TO.P,J1,10,Pin_10*%
%TO.N,/GND*%
X110027000Y-100178000D03*
%TO.P,J1,11,Pin_11*%
%TO.N,unconnected-(J1-Pin_11-Pad11)*%
X112567000Y-102718000D03*
%TO.P,J1,12,Pin_12*%
%TO.N,/GND*%
X110027000Y-102718000D03*
%TO.P,J1,13,Pin_13*%
%TO.N,/SWO-TDO*%
X112567000Y-105258000D03*
%TO.P,J1,14,Pin_14*%
%TO.N,/GND*%
X110027000Y-105258000D03*
%TO.P,J1,15,Pin_15*%
%TO.N,/~{RESET}*%
X112567000Y-107798000D03*
%TO.P,J1,16,Pin_16*%
%TO.N,/GND*%
X110027000Y-107798000D03*
%TO.P,J1,17,Pin_17*%
%TO.N,/RXD*%
X112567000Y-110338000D03*
%TO.P,J1,18,Pin_18*%
%TO.N,/GND*%
X110027000Y-110338000D03*
%TO.P,J1,19,Pin_19*%
%TO.N,unconnected-(J1-Pin_19-Pad19)*%
X112567000Y-112878000D03*
%TO.P,J1,20,Pin_20*%
%TO.N,/GND*%
X110027000Y-112878000D03*
%TD*%
D10*
%TO.P,JP1,1,A*%
%TO.N,/RXD*%
X117647000Y-112609000D03*
D11*
%TO.P,JP1,2,C*%
%TO.N,PIN7*%
X117647000Y-110069000D03*
%TO.P,JP1,3,B*%
%TO.N,/GND*%
X117647000Y-107529000D03*
%TD*%
D12*
%TO.P,J2,1,Pin_1*%
%TO.N,/VTREF*%
X117012000Y-96876000D03*
D13*
%TO.P,J2,2,Pin_2*%
%TO.N,/SWDIO-TMS*%
X118282000Y-96876000D03*
%TO.P,J2,3,Pin_3*%
%TO.N,/GND*%
X117012000Y-98146000D03*
%TO.P,J2,4,Pin_4*%
%TO.N,/SWCLK-TCK*%
X118282000Y-98146000D03*
%TO.P,J2,5,Pin_5*%
%TO.N,/GND*%
X117012000Y-99416000D03*
%TO.P,J2,6,Pin_6*%
%TO.N,/SWO-TDO*%
X118282000Y-99416000D03*
%TO.P,J2,7,Pin_7*%
%TO.N,PIN7*%
X117012000Y-100686000D03*
%TO.P,J2,8,Pin_8*%
%TO.N,/TXD-TDI*%
X118282000Y-100686000D03*
%TO.P,J2,9,Pin_9*%
%TO.N,/GND*%
X117012000Y-101956000D03*
%TO.P,J2,10,Pin_10*%
%TO.N,/~{RESET}*%
X118282000Y-101956000D03*
%TD*%
D14*
%TO.N,/GND*%
X119660000Y-104060000D03*
X114420000Y-106540000D03*
X114610000Y-88840000D03*
X114660000Y-103820000D03*
X115180000Y-110200000D03*
X115080000Y-113860000D03*
%TO.N,/SWO-TDO*%
X117682000Y-103607000D03*
%TO.N,/TXD-TDI*%
X119298000Y-95098000D03*
%TO.N,/SWDIO-TMS*%
X117502500Y-95260000D03*
%TD*%
D15*
%TO.N,/SWDIO-TMS*%
X114945000Y-95260000D02*
X117502500Y-95260000D01*
X112567000Y-97638000D02*
X114945000Y-95260000D01*
%TO.N,/SWCLK-TCK*%
X116250000Y-95860000D02*
X119425000Y-95860000D01*
X119425000Y-95860000D02*
X119933000Y-96368000D01*
X115234000Y-96876000D02*
X116250000Y-95860000D01*
X119933000Y-96368000D02*
X119933000Y-97765000D01*
X119552000Y-98146000D02*
X118282000Y-98146000D01*
X115234000Y-97511000D02*
X115234000Y-96876000D01*
X112567000Y-100178000D02*
X115234000Y-97511000D01*
X119933000Y-97765000D02*
X119552000Y-98146000D01*
%TO.N,PIN7*%
X115615000Y-101194000D02*
X115615000Y-109525000D01*
X115615000Y-109525000D02*
X116159000Y-110069000D01*
X116159000Y-110069000D02*
X117647000Y-110069000D01*
X116123000Y-100686000D02*
X115615000Y-101194000D01*
X117012000Y-100686000D02*
X116123000Y-100686000D01*
%TO.N,/GND*%
X110027000Y-92558000D02*
X110027000Y-112878000D01*
%TO.N,/SWO-TDO*%
X118897314Y-103607000D02*
X117682000Y-103607000D01*
X120030000Y-102474314D02*
X118897314Y-103607000D01*
X120030000Y-99797000D02*
X120030000Y-102474314D01*
X118282000Y-99416000D02*
X119649000Y-99416000D01*
X119649000Y-99416000D02*
X120030000Y-99797000D01*
%TO.N,/TXD-TDI*%
X112567000Y-95098000D02*
X113075000Y-94590000D01*
X113075000Y-94590000D02*
X118790000Y-94590000D01*
X118790000Y-94590000D02*
X119298000Y-95098000D01*
%TO.N,/RXD*%
X117647000Y-112609000D02*
X114838000Y-112609000D01*
X114838000Y-112609000D02*
X112567000Y-110338000D01*
%TD*%
%TA.AperFunction,Conductor*%
%TO.N,/GND*%
G36*
X117262000Y-102856962D02*
G01*
X117242315Y-102924001D01*
X117203973Y-102961955D01*
X117179741Y-102977181D01*
X117179739Y-102977182D01*
X117052184Y-103104737D01*
X116956211Y-103257476D01*
X116896631Y-103427745D01*
X116896630Y-103427750D01*
X116876435Y-103606996D01*
X116876435Y-103607003D01*
X116896630Y-103786249D01*
X116896631Y-103786254D01*
X116956211Y-103956523D01*
X117039814Y-104089575D01*
X117052184Y-104109262D01*
X117179738Y-104236816D01*
X117332478Y-104332789D01*
X117486258Y-104386599D01*
X117502745Y-104392368D01*
X117502750Y-104392369D01*
X117681996Y-104412565D01*
X117682000Y-104412565D01*
X117682004Y-104412565D01*
X117861249Y-104392369D01*
X117861252Y-104392368D01*
X117861255Y-104392368D01*
X118031522Y-104332789D01*
X118184262Y-104236816D01*
X118184267Y-104236810D01*
X118187097Y-104234555D01*
X118189275Y-104233665D01*
X118190158Y-104233111D01*
X118190255Y-104233265D01*
X118251783Y-104208145D01*
X118264412Y-104207500D01*
X118810645Y-104207500D01*
X118810661Y-104207501D01*
X118818257Y-104207501D01*
X118976368Y-104207501D01*
X118976371Y-104207501D01*
X119129099Y-104166577D01*
X119179218Y-104137639D01*
X119266030Y-104087520D01*
X119377834Y-103975716D01*
X119377834Y-103975714D01*
X119388042Y-103965507D01*
X119388043Y-103965504D01*
X119917820Y-103435728D01*
X119979142Y-103402244D01*
X120048834Y-103407228D01*
X120104767Y-103449100D01*
X120129184Y-103514564D01*
X120129500Y-103523410D01*
X120129500Y-114180358D01*
X120109815Y-114247397D01*
X120093181Y-114268039D01*
X119988039Y-114373181D01*
X119926716Y-114406666D01*
X119900358Y-114409500D01*
X113011172Y-114409500D01*
X112944133Y-114389815D01*
X112898378Y-114337011D01*
X112888434Y-114267853D01*
X112917459Y-114204297D01*
X112976237Y-114166523D01*
X112979079Y-114165725D01*
X113013038Y-114156625D01*
X113030663Y-114151903D01*
X113244830Y-114052035D01*
X113438401Y-113916495D01*
X113605495Y-113749401D01*
X113741035Y-113555830D01*
X113840903Y-113341663D01*
X113902063Y-113113408D01*
X113922659Y-112878000D01*
X113920222Y-112850154D01*
X113933987Y-112781657D01*
X113982601Y-112731473D01*
X114050629Y-112715538D01*
X114116473Y-112738911D01*
X114131431Y-112751666D01*
X114353139Y-112973374D01*
X114353149Y-112973385D01*
X114357479Y-112977715D01*
X114357480Y-112977716D01*
X114469284Y-113089520D01*
X114535935Y-113128000D01*
X114556095Y-113139639D01*
X114556097Y-113139641D01*
X114594151Y-113161611D01*
X114606215Y-113168577D01*
X114758943Y-113209501D01*
X114758946Y-113209501D01*
X114924653Y-113209501D01*
X114924669Y-113209500D01*
X116172501Y-113209500D01*
X116239540Y-113229185D01*
X116285295Y-113281989D01*
X116296501Y-113333500D01*
X116296501Y-113506876D01*
X116302908Y-113566483D01*
X116353202Y-113701328D01*
X116353206Y-113701335D01*
X116439452Y-113816544D01*
X116439455Y-113816547D01*
X116554664Y-113902793D01*
X116554671Y-113902797D01*
X116689517Y-113953091D01*
X116689516Y-113953091D01*
X116696444Y-113953835D01*
X116749127Y-113959500D01*
X118544872Y-113959499D01*
X118604483Y-113953091D01*
X118739331Y-113902796D01*
X118854546Y-113816546D01*
X118940796Y-113701331D01*
X118991091Y-113566483D01*
X118997500Y-113506873D01*
X118997499Y-111711128D01*
X118991091Y-111651517D01*
X118983252Y-111630500D01*
X118940797Y-111516671D01*
X118940793Y-111516664D01*
X118854547Y-111401455D01*
X118854544Y-111401452D01*
X118739335Y-111315206D01*
X118739328Y-111315202D01*
X118607917Y-111266189D01*
X118551983Y-111224318D01*
X118527566Y-111158853D01*
X118542418Y-111090580D01*
X118563563Y-111062332D01*
X118685495Y-110940401D01*
X118821035Y-110746830D01*
X118920903Y-110532663D01*
X118982063Y-110304408D01*
X119002659Y-110069000D01*
X118982063Y-109833592D01*
X118920903Y-109605337D01*
X118821035Y-109391171D01*
X118757123Y-109299894D01*
X118685494Y-109197597D01*
X118518402Y-109030506D01*
X118518401Y-109030505D01*
X118332405Y-108900269D01*
X118288781Y-108845692D01*
X118281588Y-108776193D01*
X118313110Y-108713839D01*
X118332405Y-108697119D01*
X118518082Y-108567105D01*
X118685105Y-108400082D01*
X118820600Y-108206578D01*
X118920429Y-107992492D01*
X118920432Y-107992486D01*
X118977636Y-107779000D01*
X118080012Y-107779000D01*
X118112925Y-107721993D01*
X118147000Y-107594826D01*
X118147000Y-107463174D01*
X118112925Y-107336007D01*
X118080012Y-107279000D01*
X118977636Y-107279000D01*
X118977635Y-107278999D01*
X118920432Y-107065513D01*
X118920429Y-107065507D01*
X118820600Y-106851422D01*
X118820599Y-106851420D01*
X118685113Y-106657926D01*
X118685108Y-106657920D01*
X118518082Y-106490894D01*
X118324578Y-106355399D01*
X118110492Y-106255570D01*
X118110486Y-106255567D01*
X117897000Y-106198364D01*
X117897000Y-107095988D01*
X117839993Y-107063075D01*
X117712826Y-107029000D01*
X117581174Y-107029000D01*
X117454007Y-107063075D01*
X117397000Y-107095988D01*
X117397000Y-106198364D01*
X117396999Y-106198364D01*
X117183513Y-106255567D01*
X117183507Y-106255570D01*
X116969422Y-106355399D01*
X116969420Y-106355400D01*
X116775926Y-106490886D01*
X116775920Y-106490891D01*
X116608891Y-106657920D01*
X116608886Y-106657926D01*
X116473400Y-106851420D01*
X116473399Y-106851422D01*
X116451882Y-106897567D01*
X116405710Y-106950006D01*
X116338516Y-106969158D01*
X116271635Y-106948942D01*
X116226300Y-106895777D01*
X116215500Y-106845162D01*
X116215500Y-102858149D01*
X116235185Y-102791110D01*
X116287989Y-102745355D01*
X116357147Y-102735411D01*
X116418166Y-102762297D01*
X116453738Y-102791491D01*
X116627465Y-102884349D01*
X116762000Y-102925159D01*
X116762000Y-102165618D01*
X116812446Y-102216064D01*
X116886555Y-102258851D01*
X116969213Y-102281000D01*
X117054787Y-102281000D01*
X117137445Y-102258851D01*
X117211554Y-102216064D01*
X117262000Y-102165618D01*
X117262000Y-102856962D01*
G37*
%TD.AperFunction*%
%TA.AperFunction,Conductor*%
G36*
X110277000Y-112444988D02*
G01*
X110219993Y-112412075D01*
X110092826Y-112378000D01*
X109961174Y-112378000D01*
X109834007Y-112412075D01*
X109777000Y-112444988D01*
X109777000Y-110771012D01*
X109834007Y-110803925D01*
X109961174Y-110838000D01*
X110092826Y-110838000D01*
X110219993Y-110803925D01*
X110277000Y-110771012D01*
X110277000Y-112444988D01*
G37*
%TD.AperFunction*%
%TA.AperFunction,Conductor*%
G36*
X115995984Y-97534673D02*
G01*
X116049861Y-97579158D01*
X116063352Y-97605324D01*
X116068203Y-97618329D01*
X116068206Y-97618335D01*
X116074561Y-97626824D01*
X116098979Y-97692288D01*
X116085495Y-97755636D01*
X116085981Y-97755838D01*
X116084894Y-97758461D01*
X116084655Y-97759586D01*
X116083650Y-97761464D01*
X116042839Y-97895999D01*
X116042840Y-97896000D01*
X116802382Y-97896000D01*
X116751936Y-97946446D01*
X116709149Y-98020555D01*
X116687000Y-98103213D01*
X116687000Y-98188787D01*
X116709149Y-98271445D01*
X116751936Y-98345554D01*
X116812446Y-98406064D01*
X116886555Y-98448851D01*
X116969213Y-98471000D01*
X117054787Y-98471000D01*
X117137445Y-98448851D01*
X117211554Y-98406064D01*
X117262000Y-98355618D01*
X117262000Y-99206382D01*
X117211554Y-99155936D01*
X117137445Y-99113149D01*
X117054787Y-99091000D01*
X116969213Y-99091000D01*
X116886555Y-99113149D01*
X116812446Y-99155936D01*
X116751936Y-99216446D01*
X116709149Y-99290555D01*
X116687000Y-99373213D01*
X116687000Y-99458787D01*
X116709149Y-99541445D01*
X116751936Y-99615554D01*
X116802382Y-99666000D01*
X116042840Y-99666000D01*
X116083652Y-99800541D01*
X116138885Y-99903874D01*
X116153127Y-99972277D01*
X116128127Y-100037521D01*
X116071822Y-100078891D01*
X116045726Y-100085264D01*
X116043948Y-100085498D01*
X116003019Y-100096464D01*
X116003019Y-100096465D01*
X115965751Y-100106451D01*
X115891214Y-100126423D01*
X115891209Y-100126426D01*
X115754290Y-100205475D01*
X115754282Y-100205481D01*
X115134481Y-100825282D01*
X115134480Y-100825284D01*
X115101659Y-100882132D01*
X115055423Y-100962215D01*
X115014499Y-101114943D01*
X115014499Y-101114945D01*
X115014499Y-101283046D01*
X115014500Y-101283059D01*
X115014500Y-109438330D01*
X115014499Y-109438348D01*
X115014499Y-109604054D01*
X115014498Y-109604054D01*
X115055423Y-109756785D01*
X115067190Y-109777165D01*
X115099768Y-109833592D01*
X115134479Y-109893715D01*
X115253349Y-110012585D01*
X115253355Y-110012590D01*
X115674139Y-110433374D01*
X115674149Y-110433385D01*
X115678479Y-110437715D01*
X115678480Y-110437716D01*
X115790284Y-110549520D01*
X115877095Y-110599639D01*
X115877097Y-110599641D01*
X115915151Y-110621611D01*
X115927215Y-110628577D01*
X116079943Y-110669500D01*
X116357909Y-110669500D01*
X116424948Y-110689185D01*
X116470292Y-110741097D01*
X116472965Y-110746830D01*
X116608501Y-110940396D01*
X116608506Y-110940402D01*
X116730430Y-111062326D01*
X116763915Y-111123649D01*
X116758931Y-111193341D01*
X116717059Y-111249274D01*
X116686083Y-111266189D01*
X116554669Y-111315203D01*
X116554664Y-111315206D01*
X116439455Y-111401452D01*
X116439452Y-111401455D01*
X116353206Y-111516664D01*
X116353202Y-111516671D01*
X116302908Y-111651517D01*
X116297270Y-111703965D01*
X116296501Y-111711123D01*
X116296500Y-111711135D01*
X116296500Y-111884500D01*
X116276815Y-111951539D01*
X116224011Y-111997294D01*
X116172500Y-112008500D01*
X115138097Y-112008500D01*
X115071058Y-111988815D01*
X115050416Y-111972181D01*
X113899766Y-110821531D01*
X113866281Y-110760208D01*
X113867672Y-110701757D01*
X113882878Y-110645007D01*
X113902063Y-110573408D01*
X113922659Y-110338000D01*
X113902063Y-110102592D01*
X113840903Y-109874337D01*
X113741035Y-109660171D01*
X113735731Y-109652595D01*
X113605494Y-109466597D01*
X113438402Y-109299506D01*
X113438396Y-109299501D01*
X113252842Y-109169575D01*
X113209217Y-109114998D01*
X113202023Y-109045500D01*
X113233546Y-108983145D01*
X113252842Y-108966425D01*
X113425266Y-108845692D01*
X113438401Y-108836495D01*
X113605495Y-108669401D01*
X113741035Y-108475830D01*
X113840903Y-108261663D01*
X113902063Y-108033408D01*
X113922659Y-107798000D01*
X113902063Y-107562592D01*
X113855626Y-107389285D01*
X113840905Y-107334344D01*
X113840904Y-107334343D01*
X113840903Y-107334337D01*
X113741035Y-107120171D01*
X113735731Y-107112595D01*
X113605494Y-106926597D01*
X113438402Y-106759506D01*
X113438396Y-106759501D01*
X113252842Y-106629575D01*
X113209217Y-106574998D01*
X113202023Y-106505500D01*
X113233546Y-106443145D01*
X113252842Y-106426425D01*
X113354277Y-106355399D01*
X113438401Y-106296495D01*
X113605495Y-106129401D01*
X113741035Y-105935830D01*
X113840903Y-105721663D01*
X113902063Y-105493408D01*
X113922659Y-105258000D01*
X113902063Y-105022592D01*
X113840903Y-104794337D01*
X113741035Y-104580171D01*
X113735731Y-104572595D01*
X113605494Y-104386597D01*
X113438402Y-104219506D01*
X113438396Y-104219501D01*
X113252842Y-104089575D01*
X113209217Y-104034998D01*
X113202023Y-103965500D01*
X113233546Y-103903145D01*
X113252842Y-103886425D01*
X113395899Y-103786255D01*
X113438401Y-103756495D01*
X113605495Y-103589401D01*
X113741035Y-103395830D01*
X113840903Y-103181663D01*
X113902063Y-102953408D01*
X113922659Y-102718000D01*
X113902063Y-102482592D01*
X113840903Y-102254337D01*
X113741035Y-102040171D01*
X113735731Y-102032595D01*
X113605494Y-101846597D01*
X113438402Y-101679506D01*
X113438396Y-101679501D01*
X113252842Y-101549575D01*
X113209217Y-101494998D01*
X113202023Y-101425500D01*
X113233546Y-101363145D01*
X113252842Y-101346425D01*
X113275026Y-101330891D01*
X113438401Y-101216495D01*
X113605495Y-101049401D01*
X113741035Y-100855830D01*
X113840903Y-100641663D01*
X113902063Y-100413408D01*
X113922659Y-100178000D01*
X113902063Y-99942592D01*
X113867671Y-99814239D01*
X113869334Y-99744393D01*
X113899763Y-99694470D01*
X114428235Y-99165999D01*
X116042839Y-99165999D01*
X116042840Y-99166000D01*
X116762000Y-99166000D01*
X116762000Y-98396000D01*
X116042840Y-98396000D01*
X116083652Y-98530541D01*
X116176503Y-98704253D01*
X116179890Y-98709322D01*
X116178338Y-98710358D01*
X116202242Y-98766661D01*
X116190442Y-98835527D01*
X116179560Y-98852458D01*
X116179890Y-98852678D01*
X116176503Y-98857746D01*
X116083652Y-99031458D01*
X116042839Y-99165999D01*
X114428235Y-99165999D01*
X115714520Y-97879716D01*
X115793577Y-97742784D01*
X115827398Y-97616564D01*
X115863761Y-97556907D01*
X115926608Y-97526378D01*
X115995984Y-97534673D01*
G37*
%TD.AperFunction*%
%TA.AperFunction,Conductor*%
G36*
X110277000Y-109904988D02*
G01*
X110219993Y-109872075D01*
X110092826Y-109838000D01*
X109961174Y-109838000D01*
X109834007Y-109872075D01*
X109777000Y-109904988D01*
X109777000Y-108231012D01*
X109834007Y-108263925D01*
X109961174Y-108298000D01*
X110092826Y-108298000D01*
X110219993Y-108263925D01*
X110277000Y-108231012D01*
X110277000Y-109904988D01*
G37*
%TD.AperFunction*%
%TA.AperFunction,Conductor*%
G36*
X110277000Y-107364988D02*
G01*
X110219993Y-107332075D01*
X110092826Y-107298000D01*
X109961174Y-107298000D01*
X109834007Y-107332075D01*
X109777000Y-107364988D01*
X109777000Y-105691012D01*
X109834007Y-105723925D01*
X109961174Y-105758000D01*
X110092826Y-105758000D01*
X110219993Y-105723925D01*
X110277000Y-105691012D01*
X110277000Y-107364988D01*
G37*
%TD.AperFunction*%
%TA.AperFunction,Conductor*%
G36*
X110277000Y-104824988D02*
G01*
X110219993Y-104792075D01*
X110092826Y-104758000D01*
X109961174Y-104758000D01*
X109834007Y-104792075D01*
X109777000Y-104824988D01*
X109777000Y-103151012D01*
X109834007Y-103183925D01*
X109961174Y-103218000D01*
X110092826Y-103218000D01*
X110219993Y-103183925D01*
X110277000Y-103151012D01*
X110277000Y-104824988D01*
G37*
%TD.AperFunction*%
%TA.AperFunction,Conductor*%
G36*
X110277000Y-102284988D02*
G01*
X110219993Y-102252075D01*
X110092826Y-102218000D01*
X109961174Y-102218000D01*
X109834007Y-102252075D01*
X109777000Y-102284988D01*
X109777000Y-100611012D01*
X109834007Y-100643925D01*
X109961174Y-100678000D01*
X110092826Y-100678000D01*
X110219993Y-100643925D01*
X110277000Y-100611012D01*
X110277000Y-102284988D01*
G37*
%TD.AperFunction*%
%TA.AperFunction,Conductor*%
G36*
X110277000Y-99744988D02*
G01*
X110219993Y-99712075D01*
X110092826Y-99678000D01*
X109961174Y-99678000D01*
X109834007Y-99712075D01*
X109777000Y-99744988D01*
X109777000Y-98071012D01*
X109834007Y-98103925D01*
X109961174Y-98138000D01*
X110092826Y-98138000D01*
X110219993Y-98103925D01*
X110277000Y-98071012D01*
X110277000Y-99744988D01*
G37*
%TD.AperFunction*%
%TA.AperFunction,Conductor*%
G36*
X110277000Y-97204988D02*
G01*
X110219993Y-97172075D01*
X110092826Y-97138000D01*
X109961174Y-97138000D01*
X109834007Y-97172075D01*
X109777000Y-97204988D01*
X109777000Y-95531012D01*
X109834007Y-95563925D01*
X109961174Y-95598000D01*
X110092826Y-95598000D01*
X110219993Y-95563925D01*
X110277000Y-95531012D01*
X110277000Y-97204988D01*
G37*
%TD.AperFunction*%
%TA.AperFunction,Conductor*%
G36*
X110277000Y-94664988D02*
G01*
X110219993Y-94632075D01*
X110092826Y-94598000D01*
X109961174Y-94598000D01*
X109834007Y-94632075D01*
X109777000Y-94664988D01*
X109777000Y-92991012D01*
X109834007Y-93023925D01*
X109961174Y-93058000D01*
X110092826Y-93058000D01*
X110219993Y-93023925D01*
X110277000Y-92991012D01*
X110277000Y-94664988D01*
G37*
%TD.AperFunction*%
%TA.AperFunction,Conductor*%
G36*
X119967397Y-88430185D02*
G01*
X119988039Y-88446819D01*
X120093181Y-88551961D01*
X120126666Y-88613284D01*
X120129500Y-88639642D01*
X120129500Y-94498060D01*
X120109815Y-94565099D01*
X120057011Y-94610854D01*
X119987853Y-94620798D01*
X119924297Y-94591773D01*
X119917819Y-94585741D01*
X119800262Y-94468184D01*
X119647521Y-94372210D01*
X119477249Y-94312630D01*
X119390330Y-94302837D01*
X119325916Y-94275770D01*
X119316533Y-94267298D01*
X119277590Y-94228355D01*
X119277588Y-94228352D01*
X119158717Y-94109481D01*
X119158716Y-94109480D01*
X119071904Y-94059360D01*
X119071904Y-94059359D01*
X119071900Y-94059358D01*
X119021785Y-94030423D01*
X118869057Y-93989499D01*
X118710943Y-93989499D01*
X118703347Y-93989499D01*
X118703331Y-93989500D01*
X113377520Y-93989500D01*
X113310481Y-93969815D01*
X113306413Y-93967085D01*
X113252839Y-93929573D01*
X113209216Y-93874998D01*
X113202022Y-93805500D01*
X113233545Y-93743145D01*
X113252837Y-93726428D01*
X113438401Y-93596495D01*
X113605495Y-93429401D01*
X113741035Y-93235830D01*
X113840903Y-93021663D01*
X113902063Y-92793408D01*
X113922659Y-92558000D01*
X113902063Y-92322592D01*
X113840903Y-92094337D01*
X113741035Y-91880171D01*
X113735730Y-91872595D01*
X113605496Y-91686600D01*
X113605494Y-91686598D01*
X113483567Y-91564671D01*
X113450084Y-91503351D01*
X113455068Y-91433659D01*
X113496939Y-91377725D01*
X113527915Y-91360810D01*
X113659331Y-91311796D01*
X113774546Y-91225546D01*
X113860796Y-91110331D01*
X113911091Y-90975483D01*
X113917500Y-90915873D01*
X113917499Y-89120128D01*
X113911091Y-89060517D01*
X113909810Y-89057083D01*
X113860797Y-88925671D01*
X113860793Y-88925664D01*
X113774547Y-88810455D01*
X113774544Y-88810452D01*
X113659335Y-88724206D01*
X113659328Y-88724202D01*
X113524482Y-88673908D01*
X113524483Y-88673908D01*
X113464883Y-88667501D01*
X113464881Y-88667500D01*
X113464873Y-88667500D01*
X113464864Y-88667500D01*
X111669129Y-88667500D01*
X111669123Y-88667501D01*
X111609516Y-88673908D01*
X111474671Y-88724202D01*
X111474664Y-88724206D01*
X111359455Y-88810452D01*
X111359452Y-88810455D01*
X111273206Y-88925664D01*
X111273203Y-88925669D01*
X111224189Y-89057083D01*
X111182317Y-89113016D01*
X111116853Y-89137433D01*
X111048580Y-89122581D01*
X111020326Y-89101430D01*
X110898402Y-88979506D01*
X110898395Y-88979501D01*
X110704834Y-88843967D01*
X110704830Y-88843965D01*
X110704828Y-88843964D01*
X110490663Y-88744097D01*
X110490659Y-88744096D01*
X110490655Y-88744094D01*
X110262413Y-88682938D01*
X110262403Y-88682936D01*
X110027001Y-88662341D01*
X110026999Y-88662341D01*
X109791596Y-88682936D01*
X109791586Y-88682938D01*
X109563344Y-88744094D01*
X109563335Y-88744098D01*
X109349171Y-88843964D01*
X109349169Y-88843965D01*
X109325623Y-88860453D01*
X109259417Y-88882780D01*
X109191649Y-88865770D01*
X109143837Y-88814821D01*
X109130500Y-88758878D01*
X109130500Y-88639642D01*
X109150185Y-88572603D01*
X109166819Y-88551961D01*
X109271961Y-88446819D01*
X109333284Y-88413334D01*
X109359642Y-88410500D01*
X119900358Y-88410500D01*
X119967397Y-88430185D01*
G37*
%TD.AperFunction*%
%TD*%
M02*
