M48
; DRILL file {KiCad 8.0.4} date 2024-07-20T22:23:50+0800
; FORMAT={-:-/ absolute / metric / decimal}
; #@! TF.CreationDate,2024-07-20T22:23:50+08:00
; #@! TF.GenerationSoftware,Kicad,Pcbnew,8.0.4
; #@! TF.FileFunction,Plated,1,2,PTH
FMAT,2
METRIC
; #@! TA.AperFunction,Plated,PTH,ViaDrill
T1C0.300
; #@! TA.AperFunction,Plated,PTH,ComponentDrill
T2C0.650
; #@! TA.AperFunction,Plated,PTH,ComponentDrill
T3C1.000
%
G90
G05
T1
X114.42Y-106.54
X114.61Y-88.84
X114.66Y-103.82
X115.08Y-113.86
X115.18Y-110.2
X117.502Y-95.26
X117.682Y-103.607
X119.298Y-95.098
X119.66Y-104.06
T2
X117.012Y-96.876
X117.012Y-98.146
X117.012Y-99.416
X117.012Y-100.686
X117.012Y-101.956
X118.282Y-96.876
X118.282Y-98.146
X118.282Y-99.416
X118.282Y-100.686
X118.282Y-101.956
T3
X110.027Y-90.018
X110.027Y-92.558
X110.027Y-95.098
X110.027Y-97.638
X110.027Y-100.178
X110.027Y-102.718
X110.027Y-105.258
X110.027Y-107.798
X110.027Y-110.338
X110.027Y-112.878
X112.567Y-90.018
X112.567Y-92.558
X112.567Y-95.098
X112.567Y-97.638
X112.567Y-100.178
X112.567Y-102.718
X112.567Y-105.258
X112.567Y-107.798
X112.567Y-110.338
X112.567Y-112.878
X117.647Y-107.529
X117.647Y-110.069
X117.647Y-112.609
M30
